<?xml version="1.0" encoding="utf-8"?>
<!-- Generator: Adobe Illustrator 27.2.0, SVG Export Plug-In . SVG Version: 6.00 Build 0)  -->
<svg version="1.1" xmlns="http://www.w3.org/2000/svg" xmlns:xlink="http://www.w3.org/1999/xlink" x="0px" y="0px"
	 viewBox="0 0 500 500" style="enable-background:new 0 0 500 500;" xml:space="preserve">
<style type="text/css">
	.st0{display:none;}
	.st1{display:inline;fill:#FEFEFE;}
	.st2{fill:#D2F3F9;}
	.st3{fill:#315E7E;}
	.st4{opacity:0.34;clip-path:url(#SVGID_00000026864735655672280910000017223611940257550506_);fill:#FFFFFF;}
	.st5{clip-path:url(#SVGID_00000026864735655672280910000017223611940257550506_);fill:#FEFEFE;}
	.st6{clip-path:url(#SVGID_00000026864735655672280910000017223611940257550506_);fill:#1A2B3D;}
	.st7{clip-path:url(#SVGID_00000026864735655672280910000017223611940257550506_);}
	.st8{clip-path:url(#SVGID_00000020363499087368616660000010524620969391046289_);}
	.st9{fill:none;stroke:#1A2B3D;stroke-miterlimit:10;}
	.st10{clip-path:url(#SVGID_00000020363499087368616660000010524620969391046289_);fill:#FFFFFF;}
	.st11{opacity:0.09;clip-path:url(#SVGID_00000026864735655672280910000017223611940257550506_);}
	.st12{opacity:0.09;}
	.st13{clip-path:url(#SVGID_00000048479600815431876330000015799269693552710064_);}
	.st14{fill:#1A2B3D;}
	.st15{fill:#FFFFFF;}
	.st16{fill:#A6E5ED;}
	.st17{fill:none;stroke:#A6E5ED;stroke-width:2;stroke-miterlimit:10;}
	.st18{fill:#46B5D3;}
	.st19{fill:none;stroke:#FFFFFF;stroke-width:2;stroke-miterlimit:10;}
	.st20{opacity:0.22;fill:#315E7E;}
	.st21{fill:#BC513C;}
	.st22{opacity:0.21;}
	.st23{fill:#F64B5B;}
	.st24{fill:#FCB02D;}
	.st25{opacity:0.27;fill:#FCB02D;}
</style>
<g id="BACKGROUND" class="st0">
	<rect class="st1" width="500" height="500"/>
</g>
<g id="OBJECTS">
	<g>
		<g>
			<path class="st2" d="M424.61,135.6c28.74,20.02,42.1,59.62,31.37,92.97c-2.15,6.68-5.17,13.18-5.89,20.16
				c-1.86,18.07,11.64,33.56,19.46,49.95c17.68,37.06,5.12,83.74-23.16,113.5s-69.37,44.54-110.14,49.41
				c-64.05,7.65-129.39-6.95-188.18-33.51c-41.98-18.96-82.56-45.35-106.56-84.66c-24.01-39.31-27.56-93.68,1.1-129.74
				c6.91-8.7,15.75-16.74,17.95-27.63c1.67-8.27-0.83-16.74-1.19-25.17c-0.91-21.32,12.4-41.38,29.92-53.56
				c17.52-12.18,38.78-17.69,59.77-21.53c-3.35-10.23,2.36-21.73,11.02-28.12c8.66-6.39,19.62-8.68,30.28-10.14
				c68.02-9.34,137.84,11.69,194.12,51.01C406.8,114.14,424.61,135.6,424.61,135.6z"/>
		</g>
		<g>
			<path class="st3" d="M459.19,213.48c-0.56,5.11-1.62,10.17-3.2,15.08c-2.15,6.68-5.17,13.18-5.89,20.16
				c-1.86,18.07,11.64,33.56,19.46,49.95c17.68,37.06,5.12,83.74-23.16,113.5s-69.37,44.54-110.14,49.41
				c-64.05,7.65-129.39-6.95-188.18-33.51c-41.98-18.96-82.56-45.35-106.56-84.66c-24.01-39.31-27.56-93.68,1.1-129.74
				L459.19,213.48z"/>
		</g>
		<g>
			<defs>
				<path id="SVGID_1_" d="M424.61,135.6c28.74,20.02,42.1,59.62,31.37,92.97c-2.15,6.68-5.17,13.18-5.89,20.16
					c-1.86,18.07,11.64,33.56,19.46,49.95c17.68,37.06,5.12,83.74-23.16,113.5s-69.37,44.54-110.14,49.41
					c-64.05,7.65-129.39-6.95-188.18-33.51c-41.98-18.96-82.56-45.35-106.56-84.66c-24.01-39.31-27.56-93.68,1.1-129.74
					c6.91-8.7,15.75-16.74,17.95-27.63c1.67-8.27-0.83-16.74-1.19-25.17c-0.91-21.32,12.4-41.38,29.92-53.56
					c17.52-12.18,38.78-17.69,59.77-21.53c-3.35-10.23,2.36-21.73,11.02-28.12c8.66-6.39,19.62-8.68,30.28-10.14
					c68.02-9.34,137.84,11.69,194.12,51.01C406.8,114.14,424.61,135.6,424.61,135.6z"/>
			</defs>
			<clipPath id="SVGID_00000011009237547680599240000018032545837691823794_">
				<use xlink:href="#SVGID_1_"  style="overflow:visible;"/>
			</clipPath>
			
				<polygon style="opacity:0.34;clip-path:url(#SVGID_00000011009237547680599240000018032545837691823794_);fill:#FFFFFF;" points="
				36.61,183.05 160.84,83.15 160.84,116.1 42.6,213.68 			"/>
			
				<rect x="3.34" y="347.16" style="clip-path:url(#SVGID_00000011009237547680599240000018032545837691823794_);fill:#FEFEFE;" width="493.32" height="10.28"/>
			
				<rect x="156.9" y="45.33" style="clip-path:url(#SVGID_00000011009237547680599240000018032545837691823794_);fill:#1A2B3D;" width="6.47" height="168.14"/>
			<g style="clip-path:url(#SVGID_00000011009237547680599240000018032545837691823794_);">
				<defs>
					<polygon id="SVGID_00000169545811799794208940000008551730729685156004_" points="-28.99,302.26 160.23,151.09 160.23,213.3 
						-21.02,390.22 					"/>
				</defs>
				<clipPath id="SVGID_00000089546447360625703750000012055957703954269086_">
					<use xlink:href="#SVGID_00000169545811799794208940000008551730729685156004_"  style="overflow:visible;"/>
				</clipPath>
				<g style="clip-path:url(#SVGID_00000089546447360625703750000012055957703954269086_);">
					<line class="st9" x1="166.7" y1="132.8" x2="145.48" y2="265.79"/>
					<line class="st9" x1="158.32" y1="141.18" x2="137.1" y2="274.17"/>
					<line class="st9" x1="149.95" y1="149.55" x2="128.73" y2="282.54"/>
					<line class="st9" x1="141.57" y1="157.93" x2="120.36" y2="290.92"/>
					<line class="st9" x1="133.2" y1="166.3" x2="111.98" y2="299.29"/>
					<line class="st9" x1="124.82" y1="174.68" x2="103.61" y2="307.67"/>
					<line class="st9" x1="116.45" y1="183.05" x2="95.23" y2="316.04"/>
					<line class="st9" x1="108.07" y1="191.43" x2="86.86" y2="324.41"/>
					<line class="st9" x1="103.89" y1="174.68" x2="78.48" y2="332.79"/>
					<line class="st9" x1="95.51" y1="183.05" x2="70.11" y2="341.16"/>
					<line class="st9" x1="87.14" y1="191.43" x2="61.73" y2="349.54"/>
					<line class="st9" x1="78.76" y1="199.8" x2="53.36" y2="357.91"/>
					<line class="st9" x1="70.39" y1="208.18" x2="44.98" y2="366.29"/>
					<line class="st9" x1="62.01" y1="216.55" x2="36.61" y2="374.66"/>
					<line class="st9" x1="53.64" y1="224.93" x2="28.23" y2="383.04"/>
					<line class="st9" x1="45.26" y1="233.3" x2="19.86" y2="391.41"/>
					<line class="st9" x1="36.89" y1="241.68" x2="11.48" y2="399.79"/>
					<line class="st9" x1="28.51" y1="250.05" x2="3.11" y2="408.16"/>
					<line class="st9" x1="20.14" y1="258.42" x2="-5.27" y2="416.54"/>
					<line class="st9" x1="11.76" y1="266.8" x2="-13.64" y2="424.91"/>
				</g>
				<g style="clip-path:url(#SVGID_00000089546447360625703750000012055957703954269086_);">
					<line class="st9" x1="-13.64" y1="132.8" x2="24.19" y2="379.64"/>
					<line class="st9" x1="-19.16" y1="142.88" x2="18.66" y2="389.71"/>
					<line class="st9" x1="-5.27" y1="141.18" x2="32.56" y2="388.01"/>
					<line class="st9" x1="3.11" y1="149.55" x2="40.94" y2="396.39"/>
					<line class="st9" x1="11.48" y1="157.93" x2="49.31" y2="404.76"/>
					<line class="st9" x1="19.86" y1="166.3" x2="57.68" y2="413.14"/>
					<line class="st9" x1="28.23" y1="174.68" x2="66.06" y2="421.51"/>
					<line class="st9" x1="36.61" y1="183.05" x2="74.43" y2="429.89"/>
					<line class="st9" x1="44.98" y1="191.43" x2="82.81" y2="438.26"/>
					<line class="st9" x1="49.17" y1="174.68" x2="91.18" y2="446.64"/>
					<line class="st9" x1="57.54" y1="183.05" x2="82.95" y2="341.16"/>
					<line class="st9" x1="65.92" y1="191.43" x2="91.32" y2="349.54"/>
					<line class="st9" x1="74.29" y1="199.8" x2="99.7" y2="357.91"/>
					<line class="st9" x1="82.67" y1="208.18" x2="108.07" y2="366.29"/>
					<line class="st9" x1="76.17" y1="124.43" x2="116.45" y2="374.66"/>
					<line class="st9" x1="84.54" y1="132.8" x2="124.82" y2="383.04"/>
					<line class="st9" x1="92.92" y1="141.18" x2="133.2" y2="391.41"/>
					<line class="st9" x1="101.29" y1="149.55" x2="141.57" y2="399.79"/>
					<line class="st9" x1="109.67" y1="157.93" x2="149.95" y2="408.16"/>
					<line class="st9" x1="118.04" y1="166.3" x2="158.32" y2="416.54"/>
					<line class="st9" x1="126.42" y1="174.68" x2="166.7" y2="424.91"/>
					<line class="st9" x1="120.39" y1="95.9" x2="160.68" y2="346.14"/>
					<line class="st9" x1="128.77" y1="104.28" x2="169.05" y2="354.51"/>
					<line class="st9" x1="137.14" y1="112.65" x2="177.43" y2="362.89"/>
					<line class="st9" x1="145.52" y1="121.03" x2="185.8" y2="371.26"/>
					<line class="st9" x1="153.89" y1="129.4" x2="194.17" y2="379.64"/>
				</g>
				<polygon style="clip-path:url(#SVGID_00000089546447360625703750000012055957703954269086_);fill:#FFFFFF;" points="
					163.38,153.57 -9.6,304.08 -14.63,270.66 156.14,143.34 				"/>
			</g>
			<g style="opacity:0.09;clip-path:url(#SVGID_00000011009237547680599240000018032545837691823794_);">
				<defs>
					<polygon id="SVGID_00000042000995115410333320000010189997897043961760_" class="st12" points="59.61,411.15 233.53,213.48 
						161.48,213.39 -55.14,412.75 					"/>
				</defs>
				<clipPath id="SVGID_00000182507241461372258550000005769362133793290686_">
					<use xlink:href="#SVGID_00000042000995115410333320000010189997897043961760_"  style="overflow:visible;"/>
				</clipPath>
				<g style="clip-path:url(#SVGID_00000182507241461372258550000005769362133793290686_);">
					<g>
						<polygon class="st14" points="92.24,232.85 92.53,233.82 263.26,198.25 262.97,197.28 						"/>
					</g>
					<g>
						<polygon class="st14" points="82.07,242.1 82.36,243.07 253.09,207.5 252.8,206.54 						"/>
					</g>
					<g>
						<polygon class="st14" points="71.91,251.36 72.19,252.32 242.93,216.76 242.64,215.79 						"/>
					</g>
					<g>
						<polygon class="st14" points="61.74,260.61 62.03,261.58 232.76,226.01 232.47,225.04 						"/>
					</g>
					<g>
						<polygon class="st14" points="51.58,269.86 51.86,270.83 222.6,235.26 222.31,234.3 						"/>
					</g>
					<g>
						<polygon class="st14" points="41.41,279.12 41.7,280.09 212.43,244.52 212.14,243.55 						"/>
					</g>
					<g>
						<polygon class="st14" points="31.25,288.37 31.53,289.34 202.27,253.77 201.98,252.81 						"/>
					</g>
					<g>
						<polygon class="st14" points="21.08,297.63 21.37,298.59 192.1,263.03 191.81,262.06 						"/>
					</g>
					<g>
						<polygon class="st14" points="10.92,306.88 11.2,307.85 214.18,265.38 213.89,264.42 						"/>
					</g>
					<g>
						<polygon class="st14" points="0.75,316.13 1.04,317.1 204.01,274.64 203.72,273.67 						"/>
					</g>
					<g>
						<polygon class="st14" points="-9.41,325.39 -9.13,326.36 193.85,283.89 193.56,282.92 						"/>
					</g>
					<g>
						<polygon class="st14" points="-19.58,334.64 -19.29,335.61 183.68,293.14 183.39,292.18 						"/>
					</g>
					<g>
						<polygon class="st14" points="-29.74,343.9 -29.46,344.86 173.52,302.4 173.23,301.43 						"/>
					</g>
					<g>
						<polygon class="st14" points="-39.91,353.15 -39.62,354.12 163.35,311.65 163.06,310.68 						"/>
					</g>
					<g>
						<polygon class="st14" points="-50.08,362.4 -49.79,363.37 153.18,320.91 152.9,319.94 						"/>
					</g>
					<g>
						<polygon class="st14" points="-60.24,371.66 -59.95,372.63 143.02,330.16 142.73,329.19 						"/>
					</g>
					<g>
						<polygon class="st14" points="-70.4,380.91 -70.12,381.88 132.85,339.41 132.57,338.45 						"/>
					</g>
					<g>
						<polygon class="st14" points="-80.57,390.17 -80.28,391.13 122.69,348.67 122.4,347.7 						"/>
					</g>
					<g>
						<polygon class="st14" points="-90.74,399.42 -90.45,400.39 112.52,357.92 112.24,356.95 						"/>
					</g>
					<g>
						<polygon class="st14" points="-100.9,408.67 -100.61,409.64 102.36,367.18 102.07,366.21 						"/>
					</g>
				</g>
				<g style="clip-path:url(#SVGID_00000182507241461372258550000005769362133793290686_);">
					<g>
						<polygon class="st14" points="-45.24,367.05 278.08,377.98 278.2,376.98 -45.13,366.05 						"/>
					</g>
					<g>
						<polygon class="st14" points="-57.85,373.65 265.47,384.57 265.59,383.57 -57.73,372.65 						"/>
					</g>
					<g>
						<polygon class="st14" points="-56.8,359.62 266.52,370.54 266.64,369.54 -56.69,358.61 						"/>
					</g>
					<g>
						<polygon class="st14" points="-68.36,352.18 254.96,363.1 255.08,362.1 -68.25,351.18 						"/>
					</g>
					<g>
						<polygon class="st14" points="-79.92,344.74 243.4,355.66 243.51,354.66 -79.81,343.74 						"/>
					</g>
					<g>
						<polygon class="st14" points="-91.48,337.3 231.84,348.23 231.95,347.23 -91.37,336.3 						"/>
					</g>
					<g>
						<polygon class="st14" points="-103.04,329.87 220.28,340.79 220.39,339.79 -102.93,328.87 						"/>
					</g>
					<g>
						<polygon class="st14" points="-114.61,322.43 208.72,333.35 208.83,332.35 -114.49,321.43 						"/>
					</g>
					<g>
						<polygon class="st14" points="-126.17,314.99 197.16,325.92 197.27,324.91 -126.05,313.99 						"/>
					</g>
					<g>
						<polygon class="st14" points="-137.73,307.55 218.53,319.93 218.65,318.92 -137.61,306.55 						"/>
					</g>
					<g>
						<polygon class="st14" points="-0.24,304.32 206.97,312.49 207.09,311.49 -0.11,303.32 						"/>
					</g>
					<g>
						<polygon class="st14" points="-11.8,296.88 195.41,305.05 195.53,304.05 -11.68,295.88 						"/>
					</g>
					<g>
						<polygon class="st14" points="-23.36,289.45 183.85,297.61 183.97,296.61 -23.23,288.44 						"/>
					</g>
					<g>
						<polygon class="st14" points="-34.92,282.01 172.29,290.18 172.41,289.18 -34.8,281.01 						"/>
					</g>
					<g>
						<polygon class="st14" points="-46.48,274.57 281.46,287.57 281.58,286.57 -46.36,273.57 						"/>
					</g>
					<g>
						<polygon class="st14" points="-58.04,267.13 269.9,280.13 270.02,279.13 -57.92,266.13 						"/>
					</g>
					<g>
						<polygon class="st14" points="-69.6,259.7 258.34,272.7 258.46,271.7 -69.48,258.7 						"/>
					</g>
					<g>
						<polygon class="st14" points="-81.16,252.26 246.78,265.26 246.9,264.26 -81.04,251.26 						"/>
					</g>
					<g>
						<polygon class="st14" points="-92.72,244.82 235.21,257.82 235.34,256.82 -92.6,243.82 						"/>
					</g>
					<g>
						<polygon class="st14" points="-104.28,237.39 223.65,250.39 223.78,249.38 -104.16,236.38 						"/>
					</g>
					<g>
						<polygon class="st14" points="-115.84,229.95 212.09,242.95 212.22,241.95 -115.72,228.95 						"/>
					</g>
					<g>
						<polygon class="st14" points="-13.17,227.4 314.77,240.4 314.9,239.4 -13.04,226.4 						"/>
					</g>
					<g>
						<polygon class="st14" points="-24.73,219.97 303.21,232.97 303.34,231.97 -24.6,218.97 						"/>
					</g>
					<g>
						<polygon class="st14" points="-36.29,212.53 291.65,225.53 291.77,224.53 -36.16,211.53 						"/>
					</g>
					<g>
						<polygon class="st14" points="-47.85,205.09 280.09,218.09 280.21,217.09 -47.73,204.09 						"/>
					</g>
					<g>
						<polygon class="st14" points="-59.41,197.66 268.53,210.66 268.65,209.65 -59.29,196.65 						"/>
					</g>
				</g>
				<g style="clip-path:url(#SVGID_00000182507241461372258550000005769362133793290686_);">
					<polygon class="st14" points="236.45,203.32 55.64,392.02 99.41,393.42 250.33,209.43 					"/>
				</g>
			</g>
			
				<polygon style="opacity:0.34;clip-path:url(#SVGID_00000011009237547680599240000018032545837691823794_);fill:#FFFFFF;" points="
				179.99,213.61 325.68,55.46 367.21,69.73 239.63,213.48 			"/>
			
				<polygon style="opacity:0.34;clip-path:url(#SVGID_00000011009237547680599240000018032545837691823794_);fill:#FFFFFF;" points="
				357.53,213.48 431.16,107.66 466.52,120.14 391.08,213.48 			"/>
			
				<polygon style="opacity:0.34;clip-path:url(#SVGID_00000011009237547680599240000018032545837691823794_);fill:#FFFFFF;" points="
				341.58,213.48 413.4,106.78 416.63,110.81 349.68,213.48 			"/>
		</g>
		<g>
			<g>
				<path class="st15" d="M339.52,109.28c2.29-1.33,4.77-3.53,7.35-4.15c0.22-3.05,2.08-6.12,4.99-7.05
					c2.91-0.93,6.61,0.98,6.93,4.02c1.17-1.28,3.18-1.71,4.77-1.03c-0.88-2.07,0.35-4.71,2.44-5.54c2.09-0.83,4.68,0.13,5.89,2.02
					c-1.33-3.69,0.24-8.21,3.57-10.28c3.33-2.08,8.07-1.5,10.81,1.31c2.73,2.81,3.17,7.57,1,10.84c0.9-1.33,1.7-2.37,2.95-3.37
					c1.25-1,2.92-1.62,4.48-1.25c1.11,0.26,2.05,1,2.81,1.85c1.65,1.87,2.49,4.42,2.35,6.92c0.61-1.28,2.08-2.1,3.49-1.94
					c1.41,0.16,2.66,1.29,2.96,2.67c0.07,0.33,0.1,0.68,0.27,0.97c0.14,0.25,0.38,0.43,0.61,0.61c1.9,1.42,4,2.57,6.22,3.4H339.52z"
					/>
				<path class="st15" d="M25.41,142.17c5.11-1.38,8.48-1.81,10.64-5.4c0.87-1.45,1.52-3.21,3.05-3.92
					c2.45-1.14,5.04,1.16,6.76,3.24c-0.16-2.08-0.32-4.21,0.25-6.22c0.57-2.01,2.01-3.91,4.03-4.41c3.61-0.9,6.62,2.69,8.61,5.84
					c-0.55-3.93-0.12-8.1,1.87-11.53c1.99-3.43,5.69-5.99,9.66-5.98c4.36,0.01,8.33,3.11,10.15,7.07c1.82,3.96,1.74,8.58,0.61,12.79
					c0,0,3.09-7.23,9.03-5.65c5.95,1.58,6.44,8.52,6.44,8.52l13.13,5.68H25.41z"/>
			</g>
			<g>
				<path class="st16" d="M101.95,383.62c0,0-24.77,13.93-29.13,33.19c-4.36,19.26,19.73,20.65,35.76-0.37
					C124.62,395.42,122.67,373.03,101.95,383.62z"/>
				
					<ellipse transform="matrix(0.7071 -0.7071 0.7071 0.7071 -170.7793 428.7979)" class="st17" cx="432.22" cy="420.55" rx="24.12" ry="24.12"/>
				
					<ellipse transform="matrix(0.7071 -0.7071 0.7071 0.7071 26.0215 343.8226)" class="st18" cx="428.04" cy="140.5" rx="8.25" ry="8.25"/>
				<circle class="st17" cx="145.36" cy="386.78" r="14.51"/>
				<path class="st17" d="M108.79,52.28c0,5.77,4.68,10.45,10.45,10.45c5.77,0,10.45-4.68,10.45-10.45
					c0-5.77-4.68-10.45-10.45-10.45C113.47,41.84,108.79,46.51,108.79,52.28z"/>
				<path class="st18" d="M355.37,426.44c0,7.54,6.11,13.65,13.65,13.65c7.54,0,13.65-6.11,13.65-13.65
					c0-7.54-6.11-13.65-13.65-13.65C361.48,412.79,355.37,418.9,355.37,426.44z"/>
				<polygon class="st19" points="357.7,127.1 363.27,138.56 351.21,138.56 				"/>
				<polygon class="st18" points="390.51,60.65 397.46,74.1 383.24,74.1 				"/>
				<polygon class="st17" points="421.16,75.92 431.28,95.5 410.58,95.5 				"/>
				<polygon class="st18" points="88.9,67.68 95.85,81.13 81.63,81.13 				"/>
			</g>
		</g>
		<g>
			<g>
				<path class="st3" d="M25.41,338.55c2.69,5.8,5.67,11.34,8.93,16.71c3.24,5.37,6.85,10.47,10.74,15.34
					c0.96,1.22,1.91,2.46,2.97,3.6l3.07,3.53c2.18,2.22,4.27,4.55,6.61,6.63c4.48,4.4,9.52,8.12,14.57,12.08
					c-5.86-2.5-11.59-5.63-16.6-9.71l-1.93-1.48c-0.65-0.49-1.2-1.08-1.81-1.61l-3.57-3.29c-2.2-2.36-4.48-4.68-6.44-7.26
					c-4.05-5.05-7.53-10.54-10.35-16.34C28.79,350.96,26.53,344.87,25.41,338.55z"/>
			</g>
			<g>
				<path class="st16" d="M260.16,39.95c9.34-0.2,18.7,0.88,27.9,2.61c2.3,0.46,4.6,0.9,6.88,1.43l6.82,1.71
					c4.5,1.31,9,2.64,13.41,4.26c4.44,1.53,8.73,3.45,13.06,5.25l6.32,3.11c1.05,0.53,2.12,1.01,3.14,1.58l3.05,1.76
					c2.02,1.19,4.09,2.3,6.06,3.56l5.82,3.94c0.95,0.68,1.94,1.31,2.86,2.03l2.75,2.19c1.82,1.47,3.63,2.94,5.4,4.45
					c-8.07-4.71-15.96-9.51-24.34-13.41l-3.1-1.52c-1.03-0.51-2.1-0.95-3.15-1.42l-6.32-2.8c-4.3-1.66-8.51-3.53-12.89-4.96
					c-8.65-3.17-17.48-5.84-26.43-8.12C278.42,43.32,269.37,41.4,260.16,39.95z"/>
			</g>
			<g>
				<path class="st16" d="M70.74,106.09c-2.95,4.9-5.43,9.93-7.56,15.07c-2.1,5.16-3.79,10.44-5,15.82
					c-0.61,2.69-1.05,5.41-1.42,8.15c-0.36,2.74-0.53,5.5-0.66,8.27c-0.15,5.55,0.22,11.14,0.87,16.84
					c-2.26-5.27-3.55-10.98-3.99-16.77c-0.43-5.79,0.03-11.67,1.3-17.36c1.29-5.68,3.31-11.19,6.09-16.28
					c1.36-2.56,2.92-5,4.63-7.32C66.74,110.21,68.58,107.98,70.74,106.09z"/>
			</g>
		</g>
	</g>
	<g>
		<path class="st20" d="M372.44,370.45c1.22,6.22-31.78,17.95-73.72,26.2c-41.94,8.25-76.93,9.9-78.15,3.68
			c-1.22-6.22,31.78-17.95,73.72-26.2C336.23,365.88,371.22,364.23,372.44,370.45z"/>
		<path class="st20" d="M435.71,350.17c0.61,3.11-11.25,8.06-26.5,11.06c-15.25,3-28.11,2.91-28.72-0.2
			c-0.61-3.11,11.25-8.06,26.5-11.06C422.24,346.97,435.1,347.06,435.71,350.17z"/>
		<path class="st21" d="M280.32,280.23c0,0-11.68,45.32,25.71,43.48c28.49-4.48,54.41-13.8,54.41-13.8l-1.46-6.83l-50.45,1.74
			c0,0-12.36-0.55-7.18-23.46"/>
		<path class="st21" d="M254.1,381.26c0.56-12.56,5.82-84.38,27.22-113.4c0.62-0.83,1.17-1.62,1.69-2.37
			c-9.07-0.07-18.14-0.27-27.21-0.61c-4.17,11.72-19.88,66.66-9.29,116.72C250.06,382,250.55,381.13,254.1,381.26z"/>
		<path class="st2" d="M246.51,381.6l-3.02,4.96c0,0-17.04,0.98-17.61,9.87c31.62-2.94,30.11-4.04,30.11-4.04l-1.8-11.48"/>
		<path class="st3" d="M254.46,382.54c-0.99,0.8-1.74,1.87-2.03,3.09c-0.44,1.9,0.4,4.1,2.13,4.98c0.39,0.2,0.8,0.32,1.23,0.4
			L254.46,382.54z"/>
		<path class="st3" d="M244.07,385.62c1.13,0.04,2.25,0.15,3.37,0.31c0.7,0.1,1.48,0.21,2.06-0.19c0.55-0.38,0.74-1.2,0.42-1.79
			c-0.45-0.8-1.54-0.93-2.46-0.95c-0.6-0.01-1.2-0.01-1.8,0.01L244.07,385.62z"/>
		<path class="st2" d="M358.45,310.69l5.16,2.67c0,0,2.14,16.93,11.05,16.89c-5.1-31.34-6.09-29.77-6.09-29.77l-11.33,2.58"/>
		<path class="st3" d="M358.85,302.7c0.86,0.93,1.98,1.61,3.23,1.81c1.92,0.31,4.06-0.67,4.82-2.46c0.17-0.4,0.27-0.82,0.31-1.25
			L358.85,302.7z"/>
		<path class="st3" d="M362.63,312.86c-0.03-1.13-0.01-2.26,0.08-3.38c0.05-0.7,0.11-1.49-0.33-2.04c-0.42-0.53-1.25-0.66-1.81-0.29
			c-0.77,0.51-0.83,1.6-0.78,2.52c0.03,0.6,0.07,1.2,0.13,1.79L362.63,312.86z"/>
		<g class="st22">
			<path class="st21" d="M301.36,281.37l-21.03-1.14c0,0-2.72,10.57-1.33,21.29c7.37-0.83,14.65-2.44,21.68-4.81
				C299.84,293.26,299.78,288.36,301.36,281.37z"/>
		</g>
		<g class="st22">
			<path class="st21" d="M252.75,274.78c-1.79,6.46-3.9,15.16-5.71,25.32c1.72,0.39,3.46,0.71,5.19,0.97
				c4.65,0.7,9.35,1.05,14.05,1.1c2.48-8.77,5.44-17.06,8.96-24.14C267.7,277.34,260.18,276.26,252.75,274.78z"/>
		</g>
		<path class="st23" d="M321.12,210.29c1.78,1.64,4.52,1.64,6.88,1.11c4.45-1.01,8.51-3.63,11.27-7.27
			c2.29-3.03,3.68-7.04,2.55-10.66c-1.04-3.34-3.97-5.71-6.92-7.59c-1.33-0.85-2.76-1.72-3.49-3.12c-1.36-2.62,0.29-5.73,1.89-8.21
			c3.92-6.09,1.68-13.6-4.48-17.48c-2.65-1.67-5.75-2.41-8.68-3.52c-2.92-1.11-5.86-2.77-7.31-5.54
			c-2.31-4.43-1.39-10.87-2.45-15.74c-1.15-5.24-3.47-10.42-7.98-13.6c-6.39-4.51-14.8-4.35-22.2-2.92
			c-9.95,1.92-21.47,11.42-20.67,22.4c0.26,3.58,1.37,7.05,1.83,10.61c0.36,2.77,0.34,5.6-0.08,8.36c-0.13,0.89-0.32,1.8-0.82,2.56
			c-0.68,1.03-1.85,1.61-2.97,2.13c-3.32,1.51-6.89,2.93-9.13,5.8c-2.24,2.87-2.36,7.77,0.78,9.62c1.11,0.65,2.73,1.24,2.59,2.52
			c-0.05,0.47-0.36,0.86-0.63,1.25c-2.91,4.06-3.04,9.91-0.31,14.09c2.73,4.18,8.13,6.42,13.02,5.4"/>
		<path class="st21" d="M306.15,214.27c0,0,10.81,18,18.35,49.81c2.98-0.25,5.92-0.78,8.8-1.54c-3.81-23.87-13.65-75.18-29.02-84.41
			c-6.2-4.35-8.35-5.67-8.35-5.67l0.13-8.84l-9.21,2.39l-0.05,7.43c0,0-11.44,1.52-13.89,1.78c-3.21,0.33-5.59,1.24-12.49,5.62
			c-6.76,4.29-15.41,7.96-15.41,7.96l-21.22-50.61l-6.34,4.41l14.97,58.65c0.81,4.43,5.36,7.11,9.63,5.68l19.32-5.05
			c0,0-1.45,13.65,5.37,17.79c-5.41,12.66-12.56,30.14-12.56,30.14s22.09,5.59,50.64,1.09l-5.67-24.98L306.15,214.27z"/>
		<path class="st24" d="M256.64,247.99l-16.18,35.38c0,0,31.61,24.17,74.54,0.67c-9.12-27.47-12.15-34.05-12.15-34.05L256.64,247.99
			z"/>
		<path class="st14" d="M303.71,208.25c-2.95-5.21-3.99-11.38-3.24-17.29c0.38-3.01,1.22-5.96,2.52-8.7
			c0.57-1.2,1.05-2.62,1.77-3.81c-0.16-0.11-0.32-0.22-0.48-0.32c-1.12-0.79-2.11-1.47-2.98-2.07c-1.58,1.73-2.8,3.8-3.68,5.98
			c-1.4,3.45-2.01,7.17-2.46,10.87c-0.16,1.26-0.31,2.58-1.03,3.63c-1.28,1.88-3.85,2.28-6.13,2.36c-4.7,0.17-9.42-0.32-13.99-1.43
			c-1.2-0.29-2.51-0.72-3.1-1.8c-0.49-0.9-0.35-2-0.19-3.01c0.92-5.84,1.85-11.68,2.77-17.52c-0.23,0.03-0.43,0.05-0.59,0.07
			c-1.01,0.11-2.02,0.26-3.09,0.61c-0.34,5.55-0.95,11.85-4.89,15.78c-8.68,8.64-6.32,15.82-6.22,16.37l0,0c0,0,1.2,7.57,8.02,11.71
			c-5.41,12.66-12.56,30.14-12.56,30.14s22.09,5.59,50.64,1.09l-5.67-24.98l7-11.65c0,0,0.13,0.22,0.36,0.63c0-0.06,0-0.12,0-0.19
			C306.35,212.35,304.88,210.31,303.71,208.25z"/>
		<g class="st22">
			<path class="st21" d="M296.06,163.62l-9.21,2.39l-0.03,4.23c3.05-0.06,6.12-0.51,9.16-1.14L296.06,163.62z"/>
		</g>
		<path class="st21" d="M306.32,146.18l-0.08-9.09c-0.1-10.85-8.98-19.57-19.83-19.47l-2.43,0.02c-10.85,0.1-19.57,8.98-19.47,19.83
			l0.13,13.58c0.08,8.37,6.93,15.09,15.3,15.02l6.93-0.06C297.7,165.91,306.42,157.03,306.32,146.18z"/>
		<g>
			<g>
				<path class="st14" d="M279.39,149.02c-0.56-0.03-1.08-0.28-1.46-0.69c-0.41-0.45-0.61-1.05-0.54-1.65l1.23-11.96
					c0.02-0.24,0.2-0.42,0.47-0.38c0.24,0.02,0.41,0.23,0.38,0.47l-1.23,11.96c-0.04,0.36,0.08,0.71,0.32,0.98
					c0.24,0.27,0.58,0.42,0.95,0.41l1.61-0.02c0.26-0.01,0.43,0.19,0.43,0.43c0,0.24-0.19,0.43-0.43,0.43l-1.61,0.02
					C279.47,149.02,279.43,149.02,279.39,149.02z"/>
			</g>
			<g>
				<path class="st14" d="M273.57,143.16c0.01,1.48-0.69,2.68-1.57,2.69c-0.88,0.01-1.61-1.18-1.62-2.66
					c-0.01-1.48,0.69-2.68,1.57-2.69C272.83,140.49,273.55,141.68,273.57,143.16z"/>
			</g>
			<g>
				<path class="st14" d="M287.87,143.03c0.01,1.48-0.69,2.68-1.57,2.69c-0.88,0.01-1.61-1.18-1.62-2.66
					c-0.01-1.48,0.69-2.68,1.57-2.69C287.13,140.36,287.85,141.55,287.87,143.03z"/>
			</g>
			<g>
				<g>
					<path class="st14" d="M268.18,136.34c1.08-1.95,3.2-2.94,5.39-2.56c0.55,0.1,0.59-0.76,0.05-0.86
						c-2.46-0.43-4.94,0.76-6.15,2.94C267.2,136.35,267.91,136.82,268.18,136.34L268.18,136.34z"/>
				</g>
			</g>
			<g>
				<g>
					<path class="st14" d="M291.51,135.69c-1.29-2.21-3.78-3.35-6.29-2.87c-0.54,0.11-0.36,0.95,0.18,0.84
						c2.12-0.41,4.26,0.55,5.35,2.42C291.02,136.56,291.79,136.17,291.51,135.69L291.51,135.69z"/>
				</g>
			</g>
			<g>
				<g>
					<path class="st14" d="M276.44,150.64c1.78,3.77,7.2,3.22,8.11-0.88c0.12-0.54-0.7-0.81-0.82-0.27
						c-0.74,3.36-5.05,3.9-6.53,0.76C276.96,149.75,276.2,150.14,276.44,150.64L276.44,150.64z"/>
				</g>
			</g>
		</g>
		<path class="st24" d="M281.33,125.07c-4.86,0.33-9.71,1.12-14.42,2.39c-1.41,2.58-2.27,5.5-2.39,8.61
			c5.12-1.33,10.43-1.98,15.72-2.17c8.26-0.3,16.51,0.47,24.74,1.24c0.39,0.04,0.79,0.07,1.18,0.11c-0.26-3.27-1.32-6.3-2.98-8.92
			C295.96,125.1,288.63,124.58,281.33,125.07z"/>
		<path class="st23" d="M280.91,116.59c-0.38,6.93,2.23,13.96,7.02,18.98c4.79,5.01,11.71,7.93,18.65,7.86
			c0.44,0,0.9-0.03,1.27-0.27c0.68-0.45,0.72-1.42,0.67-2.23c-0.23-4.09-0.82-8.2-2.31-12.01c-1.49-3.81-3.94-7.33-7.35-9.6
			c-5.12-3.41-11.72-3.63-17.82-2.83"/>
		<path class="st21" d="M324.52,260.16c0.23,3.97-0.43,8-1.91,11.69c-0.37,0.91-0.79,1.86-0.71,2.84c0.02,0.25,0.09,0.52,0.29,0.69
			c0.47,0.39,1.14-0.14,1.49-0.63c1.19-1.67,2.08-3.56,2.61-5.54c-0.25,3.02-0.22,6.05,0.09,9.06c0.12,1.2,0.43,2.59,1.53,3.08
			c0.78-1.14,0.78-2.62,0.74-4c-0.09-2.41-0.24-4.82-0.47-7.22c0.29,2.16,0.77,4.29,1.45,6.36c0.42,1.29,0.95,2.61,1.97,3.52
			c0.24,0.22,0.55,0.42,0.87,0.36c0.69-0.12,0.65-1.12,0.44-1.78c-0.9-2.76-1.79-5.52-2.69-8.28c1,1.36,1.63,2.96,2.53,4.39
			c0.89,1.43,2.16,2.77,3.81,3.13c0.2,0.04,0.42,0.07,0.61-0.02c0.52-0.25,0.32-1.03,0.03-1.53c-1.52-2.67-3.22-5.23-5.11-7.66
			c2.1,2.14,4.48,4.24,7.41,4.9c0.38,0.09,0.84,0.12,1.09-0.19c0.37-0.46-0.16-1.1-0.64-1.44c-1.24-0.9-2.48-1.81-3.72-2.71
			c-0.64-0.47-1.3-0.95-1.72-1.62c-0.28-0.45-0.45-0.96-0.61-1.47c-0.68-2.15-0.61-4.92-1.16-7.1"/>
		<g>
			<path class="st14" d="M276.76,288.07c-0.24-0.01-0.48-0.03-0.72-0.05l0.01-0.14c0.24,0.02,0.48,0.03,0.72,0.04L276.76,288.07z
				 M277.48,288.1l0.01-0.14c0.24,0.01,0.48,0.02,0.72,0.03l0,0.14C277.97,288.12,277.73,288.11,277.48,288.1z M275.31,287.97
				c-0.24-0.02-0.48-0.04-0.72-0.06l0.01-0.14c0.24,0.02,0.48,0.04,0.72,0.06L275.31,287.97z M278.94,288.15l0-0.14
				c0.24,0.01,0.48,0.01,0.73,0.01l0,0.14C279.42,288.17,279.18,288.16,278.94,288.15z M273.86,287.84
				c-0.24-0.02-0.48-0.05-0.72-0.07l0.02-0.14c0.24,0.03,0.48,0.05,0.72,0.07L273.86,287.84z M280.39,288.17l0-0.14
				c0.24,0,0.48,0,0.73,0l0,0.14C280.87,288.17,280.63,288.17,280.39,288.17z M272.42,287.69c-0.24-0.03-0.48-0.06-0.72-0.09
				l0.02-0.14c0.24,0.03,0.48,0.06,0.72,0.09L272.42,287.69z M281.84,288.16l0-0.15c0.24,0,0.48-0.01,0.72-0.02l0,0.15
				C282.33,288.15,282.09,288.16,281.84,288.16z M270.97,287.5c-0.24-0.03-0.48-0.07-0.72-0.1l0.02-0.14
				c0.24,0.04,0.48,0.07,0.72,0.1L270.97,287.5z M283.3,288.12l-0.01-0.15c0.24-0.01,0.48-0.02,0.72-0.04l0.01,0.15
				C283.78,288.09,283.54,288.11,283.3,288.12z M269.54,287.29c-0.24-0.04-0.48-0.08-0.72-0.12l0.02-0.14
				c0.24,0.04,0.48,0.08,0.72,0.12L269.54,287.29z M284.75,288.04l-0.01-0.15c0.24-0.02,0.48-0.03,0.72-0.05l0.01,0.15
				C285.23,288,284.99,288.02,284.75,288.04z M268.1,287.05c-0.24-0.04-0.48-0.09-0.72-0.13l0.03-0.14
				c0.24,0.04,0.47,0.09,0.71,0.13L268.1,287.05z M286.2,287.92l-0.01-0.14c0.24-0.02,0.48-0.04,0.72-0.07l0.01,0.14
				C286.68,287.88,286.44,287.9,286.2,287.92z M266.67,286.78c-0.24-0.05-0.48-0.09-0.71-0.14l0.03-0.14
				c0.24,0.05,0.47,0.1,0.71,0.14L266.67,286.78z M287.64,287.77l-0.02-0.14c0.24-0.03,0.48-0.06,0.72-0.09l0.02,0.14
				C288.12,287.72,287.88,287.75,287.64,287.77z M265.25,286.49c-0.24-0.05-0.47-0.1-0.71-0.15l0.03-0.14
				c0.23,0.05,0.47,0.1,0.71,0.15L265.25,286.49z M289.09,287.59l-0.02-0.14c0.24-0.03,0.48-0.07,0.72-0.11l0.02,0.14
				C289.56,287.52,289.32,287.56,289.09,287.59z M263.83,286.17c-0.24-0.06-0.47-0.11-0.71-0.17l0.03-0.14
				c0.23,0.06,0.47,0.11,0.71,0.17L263.83,286.17z M290.52,287.37l-0.02-0.14c0.24-0.04,0.48-0.08,0.71-0.12l0.03,0.14
				C291,287.29,290.76,287.33,290.52,287.37z M262.42,285.83c-0.24-0.06-0.47-0.12-0.7-0.18l0.04-0.14c0.23,0.06,0.47,0.12,0.7,0.18
				L262.42,285.83z M261.01,285.46c-0.24-0.06-0.47-0.13-0.7-0.19l0.04-0.14c0.23,0.06,0.46,0.13,0.7,0.19L261.01,285.46z
				 M291.95,287.11l-0.03-0.14c0.24-0.05,0.47-0.09,0.71-0.14l0.03,0.14C292.43,287.02,292.19,287.07,291.95,287.11z M259.61,285.07
				c-0.23-0.07-0.47-0.14-0.7-0.2l0.04-0.14c0.23,0.07,0.46,0.14,0.7,0.2L259.61,285.07z M293.38,286.82l-0.03-0.14
				c0.24-0.05,0.47-0.1,0.71-0.16l0.03,0.14C293.85,286.71,293.61,286.77,293.38,286.82z M258.22,284.66
				c-0.23-0.07-0.46-0.14-0.69-0.22l0.04-0.14c0.23,0.07,0.46,0.14,0.69,0.22L258.22,284.66z M294.79,286.49l-0.04-0.14
				c0.23-0.06,0.47-0.12,0.7-0.18l0.04,0.14C295.26,286.37,295.03,286.43,294.79,286.49z M256.83,284.22
				c-0.23-0.08-0.46-0.15-0.69-0.23l0.05-0.14c0.23,0.08,0.46,0.15,0.69,0.23L256.83,284.22z M296.2,286.12l-0.04-0.14
				c0.23-0.06,0.46-0.13,0.7-0.2l0.04,0.14C296.66,285.99,296.43,286.06,296.2,286.12z M255.45,283.77
				c-0.23-0.08-0.46-0.16-0.69-0.24l0.05-0.14c0.23,0.08,0.45,0.16,0.69,0.24L255.45,283.77z M297.59,285.71l-0.04-0.14
				c0.23-0.07,0.46-0.14,0.69-0.22l0.04,0.14C298.06,285.57,297.83,285.64,297.59,285.71z M254.08,283.29
				c-0.23-0.08-0.46-0.17-0.68-0.25l0.05-0.14c0.22,0.08,0.45,0.17,0.68,0.25L254.08,283.29z M252.72,282.78
				c-0.23-0.09-0.46-0.17-0.68-0.26l0.05-0.13c0.22,0.09,0.45,0.17,0.68,0.26L252.72,282.78z M298.98,285.27l-0.05-0.14
				c0.23-0.08,0.46-0.15,0.69-0.23l0.05,0.14C299.44,285.12,299.21,285.19,298.98,285.27z M251.36,282.26
				c-0.23-0.09-0.45-0.18-0.67-0.27l0.05-0.13c0.22,0.09,0.45,0.18,0.67,0.27L251.36,282.26z M300.35,284.79l-0.05-0.14
				c0.23-0.08,0.45-0.17,0.68-0.25l0.05,0.14C300.81,284.62,300.58,284.71,300.35,284.79z M250.01,281.71
				c-0.23-0.1-0.45-0.19-0.67-0.28l0.06-0.13c0.22,0.09,0.44,0.19,0.67,0.28L250.01,281.71z M301.71,284.27l-0.05-0.13
				c0.22-0.09,0.45-0.18,0.67-0.27l0.06,0.13C302.16,284.09,301.93,284.18,301.71,284.27z M248.68,281.14
				c-0.23-0.1-0.45-0.2-0.67-0.29l0.06-0.13c0.22,0.1,0.44,0.19,0.66,0.29L248.68,281.14z M303.05,283.72l-0.06-0.13
				c0.22-0.1,0.44-0.19,0.66-0.29l0.06,0.13C303.5,283.53,303.28,283.62,303.05,283.72z M247.35,280.55
				c-0.23-0.1-0.45-0.21-0.66-0.31l0.06-0.13c0.21,0.1,0.43,0.2,0.66,0.31L247.35,280.55z M304.38,283.13l-0.06-0.13
				c0.22-0.1,0.44-0.2,0.66-0.31l0.06,0.13C304.82,282.92,304.6,283.03,304.38,283.13z M246.03,279.93
				c-0.23-0.11-0.45-0.22-0.65-0.32l0.06-0.13c0.21,0.1,0.42,0.21,0.65,0.32L246.03,279.93z M244.72,279.29
				c-0.24-0.12-0.45-0.23-0.65-0.33l0.07-0.13c0.19,0.1,0.41,0.21,0.65,0.33L244.72,279.29z M305.69,282.5l-0.06-0.13
				c0.22-0.11,0.43-0.22,0.65-0.33l0.07,0.13C306.13,282.28,305.91,282.39,305.69,282.5z M243.43,278.61
				c-0.42-0.23-0.64-0.36-0.64-0.36l0.07-0.13c0,0,0.22,0.13,0.64,0.35L243.43,278.61z M306.99,281.84l-0.07-0.13
				c0.21-0.11,0.43-0.23,0.64-0.34l0.07,0.13C307.41,281.61,307.2,281.73,306.99,281.84z M308.26,281.14l-0.07-0.13
				c0.21-0.12,0.42-0.24,0.63-0.36l0.07,0.13C308.68,280.9,308.47,281.02,308.26,281.14z M309.52,280.41l-0.07-0.12
				c0.21-0.12,0.41-0.25,0.62-0.38l0.08,0.12C309.93,280.16,309.73,280.28,309.52,280.41z M310.75,279.64l-0.08-0.12
				c0.2-0.13,0.41-0.26,0.61-0.39l0.08,0.12C311.16,279.38,310.96,279.51,310.75,279.64z M311.97,278.85l-0.08-0.12
				c0.2-0.13,0.4-0.27,0.6-0.41l0.08,0.12C312.37,278.57,312.17,278.71,311.97,278.85z"/>
		</g>
		<g>
			<path class="st2" d="M277.42,248.82l0.01-0.14c0.24,0.01,0.48,0.02,0.72,0.04l-0.01,0.14
				C277.9,248.85,277.66,248.84,277.42,248.82z M276.7,248.78c-0.24-0.01-0.48-0.03-0.73-0.05l0.01-0.14
				c0.24,0.02,0.48,0.03,0.72,0.05L276.7,248.78z M278.88,248.89l0.01-0.14c0.24,0.01,0.48,0.02,0.73,0.03l-0.01,0.14
				C279.36,248.91,279.12,248.9,278.88,248.89z M275.25,248.69c-0.24-0.02-0.48-0.04-0.72-0.05l0.01-0.14
				c0.24,0.02,0.48,0.04,0.72,0.05L275.25,248.69z M280.33,248.94l0-0.14c0.24,0.01,0.48,0.01,0.73,0.02l0,0.14
				C280.81,248.95,280.57,248.94,280.33,248.94z M273.8,248.57c-0.24-0.02-0.48-0.04-0.72-0.06l0.01-0.14
				c0.24,0.02,0.48,0.04,0.72,0.06L273.8,248.57z M281.78,248.96l0-0.14c0.24,0,0.48,0,0.73,0.01l0,0.14
				C282.26,248.97,282.02,248.97,281.78,248.96z M272.35,248.44c-0.24-0.02-0.48-0.05-0.72-0.07l0.01-0.14
				c0.24,0.02,0.48,0.05,0.72,0.07L272.35,248.44z M283.23,248.97l0-0.14c0.24,0,0.48,0,0.72-0.01l0,0.14
				C283.71,248.97,283.47,248.97,283.23,248.97z M270.91,248.3l-0.72-0.08l0.02-0.14l0.72,0.08L270.91,248.3z M269.46,248.13
				c-0.24-0.03-0.48-0.06-0.72-0.09l0.02-0.14c0.24,0.03,0.48,0.06,0.72,0.09L269.46,248.13z M284.68,248.95l0-0.15
				c0.24,0,0.48-0.01,0.72-0.02l0,0.15C285.16,248.94,284.92,248.95,284.68,248.95z M268.02,247.95c-0.24-0.03-0.48-0.06-0.72-0.1
				l0.02-0.14c0.24,0.03,0.48,0.06,0.72,0.1L268.02,247.95z M286.13,248.92l0-0.15c0.24-0.01,0.48-0.02,0.72-0.03l0.01,0.15
				C286.61,248.9,286.37,248.91,286.13,248.92z M266.58,247.75c-0.24-0.03-0.48-0.07-0.72-0.1l0.02-0.14
				c0.24,0.04,0.48,0.07,0.72,0.1L266.58,247.75z M287.58,248.85l-0.01-0.15c0.24-0.01,0.48-0.03,0.72-0.04l0.01,0.15
				C288.06,248.83,287.82,248.84,287.58,248.85z M265.14,247.53c-0.24-0.04-0.48-0.08-0.72-0.11l0.02-0.14
				c0.24,0.04,0.47,0.08,0.72,0.11L265.14,247.53z M289.03,248.77l-0.01-0.15c0.24-0.02,0.48-0.03,0.72-0.05l0.01,0.14
				C289.51,248.73,289.27,248.75,289.03,248.77z M263.71,247.31c-0.24-0.04-0.48-0.08-0.72-0.12l0.02-0.14
				c0.23,0.04,0.47,0.08,0.72,0.12L263.71,247.31z M290.48,248.65l-0.01-0.14c0.24-0.02,0.48-0.04,0.72-0.07l0.01,0.14
				C290.96,248.61,290.72,248.63,290.48,248.65z M262.28,247.06c-0.24-0.04-0.48-0.09-0.72-0.13l0.03-0.14
				c0.23,0.04,0.47,0.09,0.71,0.13L262.28,247.06z M291.92,248.51l-0.02-0.14c0.24-0.03,0.48-0.05,0.72-0.08l0.02,0.14
				C292.4,248.46,292.16,248.49,291.92,248.51z M260.85,246.79c-0.25-0.05-0.48-0.09-0.71-0.14l0.03-0.14
				c0.23,0.05,0.47,0.09,0.71,0.14L260.85,246.79z M259.42,246.51c-0.25-0.05-0.49-0.1-0.71-0.15l0.03-0.14
				c0.22,0.05,0.46,0.1,0.71,0.15L259.42,246.51z M293.37,248.34l-0.02-0.14c0.24-0.03,0.48-0.06,0.72-0.1l0.02,0.14
				C293.85,248.28,293.61,248.31,293.37,248.34z M258,246.21c-0.26-0.06-0.5-0.11-0.71-0.16l0.03-0.14c0.21,0.05,0.45,0.1,0.71,0.16
				L258,246.21z M294.81,248.14l-0.02-0.14c0.24-0.04,0.48-0.07,0.72-0.11l0.02,0.14C295.29,248.07,295.05,248.11,294.81,248.14z
				 M256.58,245.89c-0.46-0.11-0.71-0.17-0.71-0.17l0.04-0.14c0,0,0.24,0.06,0.71,0.17L256.58,245.89z M296.24,247.91l-0.02-0.14
				c0.24-0.04,0.48-0.08,0.71-0.13l0.03,0.14C296.72,247.83,296.48,247.87,296.24,247.91z M297.67,247.65l-0.03-0.14
				c0.24-0.05,0.47-0.1,0.71-0.14l0.03,0.14C298.15,247.55,297.91,247.6,297.67,247.65z M299.1,247.35l-0.03-0.14
				c0.24-0.05,0.47-0.11,0.71-0.16l0.03,0.14C299.57,247.24,299.33,247.3,299.1,247.35z M300.51,247.02l-0.04-0.14
				c0.24-0.06,0.47-0.12,0.7-0.18l0.04,0.14C300.98,246.9,300.75,246.96,300.51,247.02z M301.92,246.64l-0.04-0.14
				c0.23-0.07,0.47-0.13,0.7-0.2l0.04,0.14C302.39,246.51,302.15,246.58,301.92,246.64z M303.31,246.23l-0.04-0.14
				c0.14-0.04,0.28-0.09,0.42-0.13l0.04,0.14C303.59,246.14,303.45,246.19,303.31,246.23z"/>
		</g>
		<path class="st21" d="M311.79,152.03c-2.38,3.13-6.24,4.19-8.62,2.38c-2.37-1.81-2.36-5.81,0.02-8.94
			c2.38-3.13,6.24-4.19,8.62-2.38C314.18,144.9,314.17,148.9,311.79,152.03z"/>
		<g>
			<g>
				<path class="st14" d="M260.18,113.35l-0.01,0c3.83-2.43,7.29-5.84,9.98-10.11c8.27-13.13,6.09-29.38-4.87-36.29
					c-10.96-6.91-26.54-1.86-34.81,11.27c-2.62,4.16-4.18,8.63-4.76,13.02l0,0c0,0,0,0.03-0.01,0.08c-0.24,1.85-0.3,3.67-0.19,5.46
					c0.02,3.5,0.27,8.35,1.24,13.61c1.16,6.29-0.05,11.09-3.19,16.08l-1.66,2.64l5.88,3.71l1.66-2.64c3.14-4.99,7.17-7.86,13.2-9.88
					c3.86-1.29,13.73-3.98,17.47-6.91C260.16,113.36,260.18,113.35,260.18,113.35z M231.45,119.12c0.33-1.9,0.3-3.71,0.11-5.71
					c-0.07-0.76,0.83-1.17,1.43-0.65c0.73,0.63,1.52,1.22,2.36,1.75c0.78,0.49,1.58,0.92,2.4,1.29c0.71,0.32,0.74,1.29,0.04,1.56
					c-1.82,0.71-3.41,1.49-4.93,2.62C232.24,120.44,231.32,119.87,231.45,119.12z"/>
				
					<rect x="215.94" y="124.87" transform="matrix(0.8422 0.5392 -0.5392 0.8422 109.2309 -96.8275)" class="st24" width="8.17" height="26.63"/>
				<polyline class="st25" points="227.57,133.97 230.65,129.17 223.76,124.77 220.56,129.76 				"/>
				<polyline class="st25" points="211.51,143.91 209.4,147.19 216.29,151.6 218.39,148.32 				"/>
				<g>
					<g>
						<g>
							<path class="st2" d="M256.34,68.11c-0.38,0.6-1.21,0.75-1.85,0.35c-0.64-0.41-0.84-1.22-0.46-1.82
								c0.38-0.6,1.21-0.75,1.85-0.35C256.52,66.7,256.73,67.51,256.34,68.11z"/>
							<path class="st2" d="M260.03,70.47c-0.38,0.6-1.21,0.75-1.85,0.35c-0.64-0.41-0.84-1.22-0.46-1.82
								c0.38-0.6,1.21-0.75,1.85-0.35C260.21,69.06,260.41,69.87,260.03,70.47z"/>
						</g>
						<g>
							<path class="st2" d="M252.31,70.1c-0.38,0.6-1.21,0.75-1.85,0.35c-0.64-0.41-0.84-1.22-0.46-1.82
								c0.38-0.6,1.21-0.75,1.85-0.35C252.49,68.68,252.69,69.5,252.31,70.1z"/>
							<path class="st2" d="M256,72.46c-0.38,0.6-1.21,0.75-1.85,0.35c-0.64-0.41-0.84-1.22-0.46-1.82c0.38-0.6,1.21-0.75,1.85-0.35
								C256.18,71.04,256.38,71.86,256,72.46z"/>
							<path class="st2" d="M259.69,74.82c-0.38,0.6-1.21,0.75-1.85,0.35c-0.64-0.41-0.84-1.22-0.46-1.82
								c0.38-0.6,1.21-0.75,1.85-0.35C259.86,73.4,260.07,74.22,259.69,74.82z"/>
						</g>
						<g>
							<path class="st2" d="M248.56,72.14c-0.38,0.6-1.21,0.75-1.85,0.35c-0.64-0.41-0.84-1.22-0.46-1.82
								c0.38-0.6,1.21-0.75,1.85-0.35C248.74,70.73,248.95,71.54,248.56,72.14z"/>
							<path class="st2" d="M252.25,74.5c-0.38,0.6-1.21,0.75-1.85,0.35c-0.64-0.41-0.84-1.22-0.46-1.82
								c0.38-0.6,1.21-0.75,1.85-0.35C252.43,73.09,252.63,73.9,252.25,74.5z"/>
							<path class="st2" d="M255.94,76.86c-0.38,0.6-1.21,0.75-1.85,0.35c-0.64-0.41-0.84-1.22-0.46-1.82
								c0.38-0.6,1.21-0.75,1.85-0.35C256.12,75.45,256.32,76.26,255.94,76.86z"/>
						</g>
						<g>
							<path class="st2" d="M244.63,73.98c-0.38,0.6-1.21,0.75-1.85,0.35c-0.64-0.41-0.84-1.22-0.46-1.82
								c0.38-0.6,1.21-0.75,1.85-0.35C244.81,72.56,245.01,73.38,244.63,73.98z"/>
							<path class="st2" d="M248.32,76.34c-0.38,0.6-1.21,0.75-1.85,0.35c-0.64-0.41-0.84-1.22-0.46-1.82
								c0.38-0.6,1.21-0.75,1.85-0.35C248.49,74.92,248.7,75.74,248.32,76.34z"/>
							<path class="st2" d="M252,78.7c-0.38,0.6-1.21,0.75-1.85,0.35c-0.64-0.41-0.84-1.22-0.46-1.82c0.38-0.6,1.21-0.75,1.85-0.35
								C252.18,77.28,252.39,78.1,252,78.7z"/>
							<path class="st2" d="M255.69,81.06c-0.38,0.6-1.21,0.75-1.85,0.35c-0.64-0.41-0.84-1.22-0.46-1.82
								c0.38-0.6,1.21-0.75,1.85-0.35C255.87,79.64,256.07,80.46,255.69,81.06z"/>
						</g>
						<g>
							<path class="st2" d="M240.88,76.02c-0.38,0.6-1.21,0.75-1.85,0.35c-0.64-0.41-0.84-1.22-0.46-1.82
								c0.38-0.6,1.21-0.75,1.85-0.35C241.06,74.61,241.26,75.42,240.88,76.02z"/>
							<path class="st2" d="M244.57,78.38c-0.38,0.6-1.21,0.75-1.85,0.35c-0.64-0.41-0.84-1.22-0.46-1.82
								c0.38-0.6,1.21-0.75,1.85-0.35C244.75,76.97,244.95,77.78,244.57,78.38z"/>
							<path class="st2" d="M248.26,80.74c-0.38,0.6-1.21,0.75-1.85,0.35c-0.64-0.41-0.84-1.22-0.46-1.82
								c0.38-0.6,1.21-0.75,1.85-0.35C248.43,79.33,248.64,80.14,248.26,80.74z"/>
							<path class="st2" d="M251.94,83.1c-0.38,0.6-1.21,0.75-1.85,0.35c-0.64-0.41-0.84-1.22-0.46-1.82
								c0.38-0.6,1.21-0.75,1.85-0.35C252.12,81.69,252.33,82.5,251.94,83.1z"/>
						</g>
						<g>
							<path class="st2" d="M236.85,78.01c-0.38,0.6-1.21,0.75-1.85,0.35c-0.64-0.41-0.84-1.22-0.46-1.82
								c0.38-0.6,1.21-0.75,1.85-0.35C237.03,76.59,237.23,77.41,236.85,78.01z"/>
							<path class="st2" d="M240.54,80.37c-0.38,0.6-1.21,0.75-1.85,0.35c-0.64-0.41-0.84-1.22-0.46-1.82
								c0.38-0.6,1.21-0.75,1.85-0.35C240.72,78.95,240.92,79.77,240.54,80.37z"/>
							<path class="st2" d="M244.22,82.73c-0.38,0.6-1.21,0.75-1.85,0.35c-0.64-0.41-0.84-1.22-0.46-1.82
								c0.38-0.6,1.21-0.75,1.85-0.35C244.4,81.31,244.61,82.13,244.22,82.73z"/>
							<path class="st2" d="M247.91,85.09c-0.38,0.6-1.21,0.75-1.85,0.35c-0.64-0.41-0.84-1.22-0.46-1.82
								c0.38-0.6,1.21-0.75,1.85-0.35C248.09,83.67,248.3,84.49,247.91,85.09z"/>
							<path class="st2" d="M251.6,87.45c-0.38,0.6-1.21,0.75-1.85,0.35c-0.64-0.41-0.84-1.22-0.46-1.82
								c0.38-0.6,1.21-0.75,1.85-0.35C251.78,86.03,251.98,86.85,251.6,87.45z"/>
						</g>
						<g>
							<path class="st2" d="M236.79,82.41c-0.38,0.6-1.21,0.75-1.85,0.35c-0.64-0.41-0.84-1.22-0.46-1.82
								c0.38-0.6,1.21-0.75,1.85-0.35C236.97,81,237.17,81.81,236.79,82.41z"/>
							<path class="st2" d="M240.48,84.77c-0.38,0.6-1.21,0.75-1.85,0.35c-0.64-0.41-0.84-1.22-0.46-1.82
								c0.38-0.6,1.21-0.75,1.85-0.35C240.66,83.36,240.86,84.17,240.48,84.77z"/>
							<path class="st2" d="M244.17,87.13c-0.38,0.6-1.21,0.75-1.85,0.35c-0.64-0.41-0.84-1.22-0.46-1.82
								c0.38-0.6,1.21-0.75,1.85-0.35C244.34,85.72,244.55,86.53,244.17,87.13z"/>
							<path class="st2" d="M247.85,89.49c-0.38,0.6-1.21,0.75-1.85,0.35c-0.64-0.41-0.84-1.22-0.46-1.82
								c0.38-0.6,1.21-0.75,1.85-0.35C248.03,88.08,248.24,88.89,247.85,89.49z"/>
						</g>
					</g>
					<g>
						<g>
							<path class="st2" d="M233.24,84.28c-0.38,0.6-1.21,0.75-1.85,0.35c-0.64-0.41-0.84-1.22-0.46-1.82
								c0.38-0.6,1.21-0.75,1.85-0.35C233.42,82.87,233.62,83.68,233.24,84.28z"/>
							<path class="st2" d="M236.92,86.64c-0.38,0.6-1.21,0.75-1.85,0.35c-0.64-0.41-0.84-1.22-0.46-1.82
								c0.38-0.6,1.21-0.75,1.85-0.35C237.1,85.23,237.31,86.04,236.92,86.64z"/>
							<path class="st2" d="M240.61,89c-0.38,0.6-1.21,0.75-1.85,0.35c-0.64-0.41-0.84-1.22-0.46-1.82c0.38-0.6,1.21-0.75,1.85-0.35
								C240.79,87.59,240.99,88.4,240.61,89z"/>
							<path class="st2" d="M244.3,91.36c-0.38,0.6-1.21,0.75-1.85,0.35c-0.64-0.41-0.84-1.22-0.46-1.82
								c0.38-0.6,1.21-0.75,1.85-0.35C244.48,89.95,244.68,90.76,244.3,91.36z"/>
							<path class="st2" d="M247.99,93.72c-0.38,0.6-1.21,0.75-1.85,0.35c-0.64-0.41-0.84-1.22-0.46-1.82
								c0.38-0.6,1.21-0.75,1.85-0.35C248.16,92.31,248.37,93.12,247.99,93.72z"/>
						</g>
						<g>
							<path class="st2" d="M233.18,88.68c-0.38,0.6-1.21,0.75-1.85,0.35c-0.64-0.41-0.84-1.22-0.46-1.82
								c0.38-0.6,1.21-0.75,1.85-0.35C233.36,87.27,233.56,88.09,233.18,88.68z"/>
							<path class="st2" d="M236.86,91.05c-0.38,0.6-1.21,0.75-1.85,0.35c-0.64-0.41-0.84-1.22-0.46-1.82
								c0.38-0.6,1.21-0.75,1.85-0.35C237.04,89.63,237.25,90.45,236.86,91.05z"/>
							<path class="st2" d="M240.55,93.41c-0.38,0.6-1.21,0.75-1.85,0.35c-0.64-0.41-0.84-1.22-0.46-1.82
								c0.38-0.6,1.21-0.75,1.85-0.35C240.73,91.99,240.94,92.81,240.55,93.41z"/>
							<path class="st2" d="M244.24,95.77c-0.38,0.6-1.21,0.75-1.85,0.35c-0.64-0.41-0.84-1.22-0.46-1.82
								c0.38-0.6,1.21-0.75,1.85-0.35C244.42,94.35,244.62,95.17,244.24,95.77z"/>
						</g>
						<g>
							<path class="st2" d="M232.83,93.03c-0.38,0.6-1.21,0.75-1.85,0.35c-0.64-0.41-0.84-1.22-0.46-1.82
								c0.38-0.6,1.21-0.75,1.85-0.35C233.01,91.62,233.22,92.43,232.83,93.03z"/>
							<path class="st2" d="M236.52,95.39c-0.38,0.6-1.21,0.75-1.85,0.35c-0.64-0.41-0.84-1.22-0.46-1.82
								c0.38-0.6,1.21-0.75,1.85-0.35C236.7,93.98,236.9,94.79,236.52,95.39z"/>
							<path class="st2" d="M240.21,97.75c-0.38,0.6-1.21,0.75-1.85,0.35c-0.64-0.41-0.84-1.22-0.46-1.82
								c0.38-0.6,1.21-0.75,1.85-0.35C240.39,96.34,240.59,97.15,240.21,97.75z"/>
							<path class="st2" d="M243.9,100.11c-0.38,0.6-1.21,0.75-1.85,0.35c-0.64-0.41-0.84-1.22-0.46-1.82
								c0.38-0.6,1.21-0.75,1.85-0.35C244.07,98.7,244.28,99.51,243.9,100.11z"/>
						</g>
						<g>
							<path class="st2" d="M232.77,97.43c-0.38,0.6-1.21,0.75-1.85,0.35c-0.64-0.41-0.84-1.22-0.46-1.82
								c0.38-0.6,1.21-0.75,1.85-0.35C232.95,96.02,233.16,96.84,232.77,97.43z"/>
							<path class="st2" d="M236.46,99.79c-0.38,0.6-1.21,0.75-1.85,0.35c-0.64-0.41-0.84-1.22-0.46-1.82
								c0.38-0.6,1.21-0.75,1.85-0.35C236.64,98.38,236.84,99.2,236.46,99.79z"/>
							<path class="st2" d="M240.15,102.16c-0.38,0.6-1.21,0.75-1.85,0.35c-0.64-0.41-0.84-1.22-0.46-1.82
								c0.38-0.6,1.21-0.75,1.85-0.35C240.33,100.74,240.53,101.56,240.15,102.16z"/>
						</g>
						<g>
							<path class="st2" d="M232.53,101.63c-0.38,0.6-1.21,0.75-1.85,0.35c-0.64-0.41-0.84-1.22-0.46-1.82
								c0.38-0.6,1.21-0.75,1.85-0.35C232.7,100.22,232.91,101.03,232.53,101.63z"/>
							<path class="st2" d="M236.21,103.99c-0.38,0.6-1.21,0.75-1.85,0.35c-0.64-0.41-0.84-1.22-0.46-1.82
								c0.38-0.6,1.21-0.75,1.85-0.35C236.39,102.58,236.6,103.39,236.21,103.99z"/>
							<path class="st2" d="M239.9,106.35c-0.38,0.6-1.21,0.75-1.85,0.35c-0.64-0.41-0.84-1.22-0.46-1.82
								c0.38-0.6,1.21-0.75,1.85-0.35C240.08,104.94,240.28,105.75,239.9,106.35z"/>
						</g>
						<g>
							<path class="st2" d="M232.47,106.04c-0.38,0.6-1.21,0.75-1.85,0.35c-0.64-0.41-0.84-1.22-0.46-1.82
								c0.38-0.6,1.21-0.75,1.85-0.35C232.64,104.62,232.85,105.44,232.47,106.04z"/>
							<path class="st2" d="M236.15,108.4c-0.38,0.6-1.21,0.75-1.85,0.35c-0.64-0.41-0.84-1.22-0.46-1.82
								c0.38-0.6,1.21-0.75,1.85-0.35C236.33,106.98,236.54,107.8,236.15,108.4z"/>
						</g>
					</g>
					<g>
						<g>
							<path class="st2" d="M263.63,72.78c-0.38,0.6-1.21,0.75-1.85,0.35c-0.64-0.41-0.84-1.22-0.46-1.82
								c0.38-0.6,1.21-0.75,1.85-0.35C263.81,71.36,264.02,72.18,263.63,72.78z"/>
							<path class="st2" d="M267.32,75.14c-0.38,0.6-1.21,0.75-1.85,0.35c-0.64-0.41-0.84-1.22-0.46-1.82s1.21-0.75,1.85-0.35
								C267.5,73.72,267.7,74.54,267.32,75.14z"/>
							<path class="st2" d="M271.01,77.5c-0.38,0.6-1.21,0.75-1.85,0.35c-0.64-0.41-0.84-1.22-0.46-1.82
								c0.38-0.6,1.21-0.75,1.85-0.35C271.18,76.08,271.39,76.9,271.01,77.5z"/>
						</g>
						<g>
							<path class="st2" d="M263.29,77.12c-0.38,0.6-1.21,0.75-1.85,0.35c-0.64-0.41-0.84-1.22-0.46-1.82
								c0.38-0.6,1.21-0.75,1.85-0.35C263.47,75.71,263.67,76.53,263.29,77.12z"/>
							<path class="st2" d="M266.98,79.48c-0.38,0.6-1.21,0.75-1.85,0.35c-0.64-0.41-0.84-1.22-0.46-1.82
								c0.38-0.6,1.21-0.75,1.85-0.35C267.15,78.07,267.36,78.89,266.98,79.48z"/>
							<path class="st2" d="M270.66,81.85c-0.38,0.6-1.21,0.75-1.85,0.35c-0.64-0.41-0.84-1.22-0.46-1.82
								c0.38-0.6,1.21-0.75,1.85-0.35C270.84,80.43,271.05,81.25,270.66,81.85z"/>
						</g>
						<g>
							<path class="st2" d="M259.54,79.17c-0.38,0.6-1.21,0.75-1.85,0.35c-0.64-0.41-0.84-1.22-0.46-1.82
								c0.38-0.6,1.21-0.75,1.85-0.35C259.72,77.75,259.92,78.57,259.54,79.17z"/>
							<path class="st2" d="M263.23,81.53c-0.38,0.6-1.21,0.75-1.85,0.35c-0.64-0.41-0.84-1.22-0.46-1.82
								c0.38-0.6,1.21-0.75,1.85-0.35C263.41,80.11,263.61,80.93,263.23,81.53z"/>
							<path class="st2" d="M266.92,83.89c-0.38,0.6-1.21,0.75-1.85,0.35c-0.64-0.41-0.84-1.22-0.46-1.82
								c0.38-0.6,1.21-0.75,1.85-0.35C267.09,82.47,267.3,83.29,266.92,83.89z"/>
							<path class="st2" d="M270.6,86.25c-0.38,0.6-1.21,0.75-1.85,0.35c-0.64-0.41-0.84-1.22-0.46-1.82
								c0.38-0.6,1.21-0.75,1.85-0.35C270.78,84.83,270.99,85.65,270.6,86.25z"/>
						</g>
						<g>
							<path class="st2" d="M259.29,83.37c-0.38,0.6-1.21,0.75-1.85,0.35c-0.64-0.41-0.84-1.22-0.46-1.82
								c0.38-0.6,1.21-0.75,1.85-0.35C259.47,81.95,259.68,82.77,259.29,83.37z"/>
							<path class="st2" d="M262.98,85.73c-0.38,0.6-1.21,0.75-1.85,0.35c-0.64-0.41-0.84-1.22-0.46-1.82
								c0.38-0.6,1.21-0.75,1.85-0.35C263.16,84.31,263.36,85.13,262.98,85.73z"/>
							<path class="st2" d="M266.67,88.09c-0.38,0.6-1.21,0.75-1.85,0.35c-0.64-0.41-0.84-1.22-0.46-1.82
								c0.38-0.6,1.21-0.75,1.85-0.35C266.85,86.67,267.05,87.49,266.67,88.09z"/>
							<path class="st2" d="M270.35,90.45c-0.38,0.6-1.21,0.75-1.85,0.35c-0.64-0.41-0.84-1.22-0.46-1.82
								c0.38-0.6,1.21-0.75,1.85-0.35C270.53,89.03,270.74,89.85,270.35,90.45z"/>
						</g>
						<g>
							<path class="st2" d="M255.55,85.41c-0.38,0.6-1.21,0.75-1.85,0.35c-0.64-0.41-0.84-1.22-0.46-1.82
								c0.38-0.6,1.21-0.75,1.85-0.35C255.72,83.99,255.93,84.81,255.55,85.41z"/>
							<path class="st2" d="M259.23,87.77c-0.38,0.6-1.21,0.75-1.85,0.35c-0.64-0.41-0.84-1.22-0.46-1.82
								c0.38-0.6,1.21-0.75,1.85-0.35C259.41,86.35,259.62,87.17,259.23,87.77z"/>
							<path class="st2" d="M262.92,90.13c-0.38,0.6-1.21,0.75-1.85,0.35c-0.64-0.41-0.84-1.22-0.46-1.82
								c0.38-0.6,1.21-0.75,1.85-0.35C263.1,88.71,263.3,89.53,262.92,90.13z"/>
							<path class="st2" d="M266.61,92.49c-0.38,0.6-1.21,0.75-1.85,0.35c-0.64-0.41-0.84-1.22-0.46-1.82
								c0.38-0.6,1.21-0.75,1.85-0.35C266.79,91.08,266.99,91.89,266.61,92.49z"/>
							<path class="st2" d="M270.29,94.85c-0.38,0.6-1.21,0.75-1.85,0.35c-0.64-0.41-0.84-1.22-0.46-1.82
								c0.38-0.6,1.21-0.75,1.85-0.35C270.47,93.44,270.68,94.25,270.29,94.85z"/>
						</g>
						<g>
							<path class="st2" d="M255.2,89.75c-0.38,0.6-1.21,0.75-1.85,0.35c-0.64-0.41-0.84-1.22-0.46-1.82
								c0.38-0.6,1.21-0.75,1.85-0.35C255.38,88.34,255.59,89.16,255.2,89.75z"/>
							<path class="st2" d="M258.89,92.11c-0.38,0.6-1.21,0.75-1.85,0.35c-0.64-0.41-0.84-1.22-0.46-1.82
								c0.38-0.6,1.21-0.75,1.85-0.35C259.07,90.7,259.27,91.52,258.89,92.11z"/>
							<path class="st2" d="M262.58,94.48c-0.38,0.6-1.21,0.75-1.85,0.35c-0.64-0.41-0.84-1.22-0.46-1.82
								c0.38-0.6,1.21-0.75,1.85-0.35C262.75,93.06,262.96,93.88,262.58,94.48z"/>
							<path class="st2" d="M266.26,96.84c-0.38,0.6-1.21,0.75-1.85,0.35c-0.64-0.41-0.84-1.22-0.46-1.82
								c0.38-0.6,1.21-0.75,1.85-0.35C266.44,95.42,266.65,96.24,266.26,96.84z"/>
							<path class="st2" d="M269.95,99.2c-0.38,0.6-1.21,0.75-1.85,0.35c-0.64-0.41-0.84-1.22-0.46-1.82
								c0.38-0.6,1.21-0.75,1.85-0.35C270.13,97.78,270.33,98.6,269.95,99.2z"/>
						</g>
						<g>
							<path class="st2" d="M251.46,91.8c-0.38,0.6-1.21,0.75-1.85,0.35c-0.64-0.41-0.84-1.22-0.46-1.82
								c0.38-0.6,1.21-0.75,1.85-0.35C251.63,90.38,251.84,91.2,251.46,91.8z"/>
							<path class="st2" d="M255.14,94.16c-0.38,0.6-1.21,0.75-1.85,0.35c-0.64-0.41-0.84-1.22-0.46-1.82
								c0.38-0.6,1.21-0.75,1.85-0.35C255.32,92.74,255.53,93.56,255.14,94.16z"/>
							<path class="st2" d="M258.83,96.52c-0.38,0.6-1.21,0.75-1.85,0.35c-0.64-0.41-0.84-1.22-0.46-1.82
								c0.38-0.6,1.21-0.75,1.85-0.35C259.01,95.1,259.21,95.92,258.83,96.52z"/>
							<path class="st2" d="M262.52,98.88c-0.38,0.6-1.21,0.75-1.85,0.35c-0.64-0.41-0.84-1.22-0.46-1.82
								c0.38-0.6,1.21-0.75,1.85-0.35C262.7,97.46,262.9,98.28,262.52,98.88z"/>
							<path class="st2" d="M266.2,101.24c-0.38,0.6-1.21,0.75-1.85,0.35c-0.64-0.41-0.84-1.22-0.46-1.82
								c0.38-0.6,1.21-0.75,1.85-0.35C266.38,99.83,266.59,100.64,266.2,101.24z"/>
						</g>
					</g>
					<g>
						<g>
							<path class="st2" d="M251.59,96.03c-0.38,0.6-1.21,0.75-1.85,0.35c-0.64-0.41-0.84-1.22-0.46-1.82
								c0.38-0.6,1.21-0.75,1.85-0.35C251.77,94.62,251.97,95.43,251.59,96.03z"/>
							<path class="st2" d="M255.28,98.39c-0.38,0.6-1.21,0.75-1.85,0.35c-0.64-0.41-0.84-1.22-0.46-1.82
								c0.38-0.6,1.21-0.75,1.85-0.35C255.45,96.98,255.66,97.79,255.28,98.39z"/>
							<path class="st2" d="M258.96,100.75c-0.38,0.6-1.21,0.75-1.85,0.35c-0.64-0.41-0.84-1.22-0.46-1.82
								c0.38-0.6,1.21-0.75,1.85-0.35C259.14,99.34,259.35,100.15,258.96,100.75z"/>
							<path class="st2" d="M262.65,103.11c-0.38,0.6-1.21,0.75-1.85,0.35c-0.64-0.41-0.84-1.22-0.46-1.82
								c0.38-0.6,1.21-0.75,1.85-0.35C262.83,101.7,263.03,102.51,262.65,103.11z"/>
							<path class="st2" d="M266.34,105.47c-0.38,0.6-1.21,0.75-1.85,0.35c-0.64-0.41-0.84-1.22-0.46-1.82
								c0.38-0.6,1.21-0.75,1.85-0.35C266.52,104.06,266.72,104.87,266.34,105.47z"/>
						</g>
						<g>
							<path class="st2" d="M247.84,98.07c-0.38,0.6-1.21,0.75-1.85,0.35c-0.64-0.41-0.84-1.22-0.46-1.82
								c0.38-0.6,1.21-0.75,1.85-0.35C248.02,96.66,248.23,97.47,247.84,98.07z"/>
							<path class="st2" d="M251.53,100.43c-0.38,0.6-1.21,0.75-1.85,0.35c-0.64-0.41-0.84-1.22-0.46-1.82
								c0.38-0.6,1.21-0.75,1.85-0.35C251.71,99.02,251.91,99.83,251.53,100.43z"/>
							<path class="st2" d="M255.22,102.79c-0.38,0.6-1.21,0.75-1.85,0.35c-0.64-0.41-0.84-1.22-0.46-1.82
								c0.38-0.6,1.21-0.75,1.85-0.35C255.39,101.38,255.6,102.19,255.22,102.79z"/>
							<path class="st2" d="M258.9,105.15c-0.38,0.6-1.21,0.75-1.85,0.35c-0.64-0.41-0.84-1.22-0.46-1.82
								c0.38-0.6,1.21-0.75,1.85-0.35C259.08,103.74,259.29,104.56,258.9,105.15z"/>
							<path class="st2" d="M262.59,107.51c-0.38,0.6-1.21,0.75-1.85,0.35c-0.64-0.41-0.84-1.22-0.46-1.82
								c0.38-0.6,1.21-0.75,1.85-0.35C262.77,106.1,262.97,106.92,262.59,107.51z"/>
						</g>
						<g>
							<path class="st2" d="M247.5,102.42c-0.38,0.6-1.21,0.75-1.85,0.35c-0.64-0.41-0.84-1.22-0.46-1.82
								c0.38-0.6,1.21-0.75,1.85-0.35C247.68,101,247.88,101.82,247.5,102.42z"/>
							<path class="st2" d="M251.19,104.78c-0.38,0.6-1.21,0.75-1.85,0.35c-0.64-0.41-0.84-1.22-0.46-1.82
								c0.38-0.6,1.21-0.75,1.85-0.35C251.36,103.36,251.57,104.18,251.19,104.78z"/>
							<path class="st2" d="M254.87,107.14c-0.38,0.6-1.21,0.75-1.85,0.35c-0.64-0.41-0.84-1.22-0.46-1.82
								c0.38-0.6,1.21-0.75,1.85-0.35C255.05,105.73,255.26,106.54,254.87,107.14z"/>
							<path class="st2" d="M258.56,109.5c-0.38,0.6-1.21,0.75-1.85,0.35c-0.64-0.41-0.84-1.22-0.46-1.82
								c0.38-0.6,1.21-0.75,1.85-0.35C258.74,108.09,258.94,108.9,258.56,109.5z"/>
						</g>
						<g>
							<path class="st2" d="M243.75,104.46c-0.38,0.6-1.21,0.75-1.85,0.35c-0.64-0.41-0.84-1.22-0.46-1.82
								c0.38-0.6,1.21-0.75,1.85-0.35C243.93,103.05,244.13,103.86,243.75,104.46z"/>
							<path class="st2" d="M247.44,106.82c-0.38,0.6-1.21,0.75-1.85,0.35c-0.64-0.41-0.84-1.22-0.46-1.82
								c0.38-0.6,1.21-0.75,1.85-0.35C247.62,105.41,247.82,106.22,247.44,106.82z"/>
							<path class="st2" d="M251.13,109.18c-0.38,0.6-1.21,0.75-1.85,0.35c-0.64-0.41-0.84-1.22-0.46-1.82
								c0.38-0.6,1.21-0.75,1.85-0.35C251.3,107.77,251.51,108.58,251.13,109.18z"/>
							<path class="st2" d="M254.81,111.54c-0.38,0.6-1.21,0.75-1.85,0.35c-0.64-0.41-0.84-1.22-0.46-1.82
								c0.38-0.6,1.21-0.75,1.85-0.35C254.99,110.13,255.2,110.94,254.81,111.54z"/>
						</g>
						<g>
							<path class="st2" d="M243.5,108.66c-0.38,0.6-1.21,0.75-1.85,0.35c-0.64-0.41-0.84-1.22-0.46-1.82
								c0.38-0.6,1.21-0.75,1.85-0.35C243.68,107.25,243.89,108.06,243.5,108.66z"/>
							<path class="st2" d="M247.19,111.02c-0.38,0.6-1.21,0.75-1.85,0.35c-0.64-0.41-0.84-1.22-0.46-1.82
								c0.38-0.6,1.21-0.75,1.85-0.35C247.37,109.61,247.57,110.42,247.19,111.02z"/>
							<path class="st2" d="M250.88,113.38c-0.38,0.6-1.21,0.75-1.85,0.35c-0.64-0.41-0.84-1.22-0.46-1.82
								c0.38-0.6,1.21-0.75,1.85-0.35C251.06,111.97,251.26,112.78,250.88,113.38z"/>
						</g>
						<g>
							<path class="st2" d="M239.76,110.7c-0.38,0.6-1.21,0.75-1.85,0.35c-0.64-0.41-0.84-1.22-0.46-1.82
								c0.38-0.6,1.21-0.75,1.85-0.35C239.93,109.29,240.14,110.1,239.76,110.7z"/>
							<path class="st2" d="M243.44,113.06c-0.38,0.6-1.21,0.75-1.85,0.35c-0.64-0.41-0.84-1.22-0.46-1.82
								c0.38-0.6,1.21-0.75,1.85-0.35C243.62,111.65,243.83,112.46,243.44,113.06z"/>
							<path class="st2" d="M247.13,115.42c-0.38,0.6-1.21,0.75-1.85,0.35c-0.64-0.41-0.84-1.22-0.46-1.82
								c0.38-0.6,1.21-0.75,1.85-0.35C247.31,114.01,247.51,114.83,247.13,115.42z"/>
						</g>
					</g>
				</g>
				<path class="st24" d="M229.1,131.07l-6.42-4.11c-0.9-0.58-1.17-1.78-0.59-2.69l0.04-0.06c0.58-0.9,1.78-1.17,2.69-0.59
					l6.42,4.11c0.9,0.58,1.17,1.78,0.59,2.69l-0.04,0.06C231.21,131.38,230.01,131.65,229.1,131.07z"/>
				<path class="st24" d="M214.92,153.07l-6.42-4.11c-0.9-0.58-1.17-1.78-0.59-2.69l0.04-0.06c0.58-0.9,1.78-1.17,2.69-0.59
					l6.42,4.11c0.9,0.58,1.17,1.78,0.59,2.69l-0.04,0.06C217.03,153.39,215.83,153.65,214.92,153.07z"/>
			</g>
		</g>
		<path class="st21" d="M222.28,132.15c-0.48-2.32-3.27-1.72-4.86-1.19c-1.55,0.52-2.94,1.6-3.71,3.05
			c-0.62,1.17-0.86,2.5-1.02,3.82c-0.11,0.92-0.19,1.89,0.18,2.74c0.28,0.64,0.79,1.15,1.28,1.65c0.15,0.15,0.31,0.3,0.51,0.35
			c0.3,0.07,0.6-0.11,0.86-0.29c2.9-2.06,5.17-4.99,6.46-8.3C222.2,133.4,222.4,132.77,222.28,132.15z"/>
		<g>
			<path class="st14" d="M222.32,89.71c-0.01-2.38,0.45-4.73,1.15-7.01c0.7-2.28,1.73-4.46,2.99-6.51c1.27-2.05,2.9-3.88,4.74-5.43
				c1.82-1.58,4.03-2.68,6.27-3.39c-1.88,1.46-3.69,2.83-5.21,4.53c-0.41,0.39-0.75,0.85-1.12,1.27c-0.36,0.43-0.75,0.84-1.06,1.31
				l-1.02,1.35l-0.92,1.42c-1.22,1.9-2.26,3.92-3.23,6C223.98,85.34,223.12,87.48,222.32,89.71z"/>
		</g>
		<g>
			<path class="st14" d="M276.39,74.08c1.15,1.68,1.91,3.6,2.42,5.56c0.52,1.97,0.8,4.01,0.79,6.06c0.01,2.05-0.24,4.1-0.78,6.07
				c-0.49,1.98-1.35,3.86-2.43,5.56c0.31-2.01,0.72-3.91,0.9-5.85c0.24-1.92,0.32-3.85,0.32-5.77
				C277.63,81.86,277.14,78.03,276.39,74.08z"/>
		</g>
		<g>
			<path class="st14" d="M280.88,77.64c0.73,1.13,1.18,2.38,1.49,3.65c0.31,1.28,0.47,2.59,0.47,3.91c0.01,1.32-0.2,2.65-0.55,3.93
				c-0.36,1.28-0.96,2.51-1.81,3.53c0.08-1.34,0.22-2.56,0.27-3.8c0.05-1.23,0.09-2.45,0.09-3.67l-0.01-3.71
				C280.81,80.24,280.8,78.98,280.88,77.64z"/>
		</g>
		<g>
			<path class="st24" d="M215.79,69.03c-0.92,4.95-5.67,8.22-10.62,7.31c-4.95-0.92-8.22-5.67-7.31-10.62
				c0.92-4.95,5.67-8.22,10.62-7.31C213.44,59.32,216.71,64.08,215.79,69.03z"/>
			<g>
				<path class="st15" d="M199.54,63.8c-0.27,1.93-0.06,3.7,0.6,5.13c0.8,1.73,2.33,2.99,4,3.3c0,0,0.01,0,0.01,0
					c1.91,0.35,3.89-0.63,4.61-2.28c0.46-1.04,0.39-2.17,0.33-3.25c-0.02-0.27-0.03-0.54-0.04-0.81c-0.06-2.35,0.6-4.69,1.86-6.66
					c-0.24-0.12-0.49-0.24-0.75-0.34c-1.31,2.09-1.98,4.55-1.92,7.02c0.01,0.28,0.02,0.56,0.04,0.84c0.06,1.04,0.12,2.02-0.26,2.88
					c-0.57,1.29-2.2,2.09-3.73,1.81c0,0-0.01,0-0.01,0c-1.41-0.26-2.72-1.35-3.41-2.84c-0.6-1.29-0.78-2.91-0.54-4.68
					c0.18-1.29,0.56-2.55,0.98-3.79c-0.43,0.32-0.82,0.68-1.19,1.08C199.88,62.05,199.67,62.92,199.54,63.8z"/>
			</g>
		</g>
	</g>
</g>
</svg>
